<?xml version='1.0' encoding='UTF-8'?>
<svg xmlns="http://www.w3.org/2000/svg" xmlns:xlink="http://www.w3.org/1999/xlink" width="860" height="952" viewBox="205 298 215 238">
<defs>
<g>
<g id="glyph-0-0">
<path d="M 1.203125 0 L 4.203125 -17.546875 L 9.109375 -4.859375 L 14.171875 -17.546875 L 16.859375 0 L 14.65625 0 L 13.28125 -9.859375 L 9.0625 0.75 L 4.96875 -9.859375 L 3.4375 0 Z M 1.203125 0 "/>
</g>
<g id="glyph-0-1">
<path d="M 9.578125 -14.015625 L 3.859375 -14.015625 L 3.859375 -10.09375 L 9.40625 -10.09375 L 9.40625 -7.765625 L 3.859375 -7.765625 L 3.859375 -2.3125 L 9.578125 -2.3125 L 9.578125 0 L 1.703125 0 L 1.703125 -16.328125 L 9.578125 -16.328125 Z M 9.578125 -14.015625 "/>
</g>
<g id="glyph-0-2">
<path d="M 4.171875 -2.3125 L 11.015625 -2.3125 L 11.015625 0 L 0.640625 0 L 7.640625 -14.015625 L 1.78125 -14.015625 L 1.78125 -16.328125 L 11.171875 -16.328125 Z M 4.171875 -2.3125 "/>
</g>
<g id="glyph-0-3">
<path d="M 10.078125 -3.96875 L 3.984375 -3.96875 L 2.390625 0 L 0.078125 0 L 7.125 -17.359375 L 13.9375 0 L 11.578125 0 Z M 9.203125 -6.28125 L 7.09375 -11.828125 L 4.875 -6.28125 Z M 9.203125 -6.28125 "/>
</g>
<g id="glyph-0-4">
</g>
<g id="glyph-0-5">
<path d="M 9.03125 -8.5 L 14.921875 -8.5 L 14.921875 -7.96875 C 14.921875 -6.738281 14.796875 -5.648438 14.546875 -4.703125 C 14.304688 -3.828125 13.890625 -3.007812 13.296875 -2.25 C 11.972656 -0.539062 10.289062 0.3125 8.25 0.3125 C 6.257812 0.3125 4.550781 -0.515625 3.125 -2.171875 C 1.707031 -3.828125 1 -5.8125 1 -8.125 C 1 -10.5 1.722656 -12.507812 3.171875 -14.15625 C 4.609375 -15.8125 6.367188 -16.640625 8.453125 -16.640625 C 9.566406 -16.640625 10.601562 -16.378906 11.5625 -15.859375 C 12.488281 -15.335938 13.398438 -14.492188 14.296875 -13.328125 L 12.765625 -11.640625 C 11.585938 -13.421875 10.160156 -14.3125 8.484375 -14.3125 C 6.972656 -14.3125 5.707031 -13.71875 4.6875 -12.53125 C 3.664062 -11.363281 3.15625 -9.894531 3.15625 -8.125 C 3.15625 -6.3125 3.722656 -4.816406 4.859375 -3.640625 C 5.929688 -2.546875 7.085938 -2 8.328125 -2 C 9.390625 -2 10.335938 -2.40625 11.171875 -3.21875 C 12.015625 -4.050781 12.488281 -5.039062 12.59375 -6.1875 L 9.03125 -6.1875 Z M 9.03125 -8.5 "/>
</g>
<g id="glyph-0-6">
<path d="M 1.703125 0 L 1.703125 -17.4375 L 12.109375 -4.984375 L 12.109375 -16.328125 L 14.25 -16.328125 L 14.25 1 L 3.859375 -11.4375 L 3.859375 0 Z M 1.703125 0 "/>
</g>
<g id="glyph-0-7">
<path d="M 6.53125 -6.953125 L 10.953125 0 L 8.3125 0 L 4.25 -6.6875 L 3.859375 -6.6875 L 3.859375 0 L 1.703125 0 L 1.703125 -16.328125 L 4.234375 -16.328125 C 6.109375 -16.328125 7.46875 -15.921875 8.3125 -15.109375 C 9.226562 -14.203125 9.6875 -13.007812 9.6875 -11.53125 C 9.6875 -10.375 9.394531 -9.378906 8.8125 -8.546875 C 8.238281 -7.722656 7.476562 -7.191406 6.53125 -6.953125 Z M 3.859375 -8.828125 L 4.546875 -8.828125 C 6.578125 -8.828125 7.59375 -9.71875 7.59375 -11.5 C 7.59375 -13.175781 6.601562 -14.015625 4.625 -14.015625 L 3.859375 -14.015625 Z M 3.859375 -8.828125 "/>
</g>
<g id="glyph-0-8">
<path d="M 3.859375 -16.328125 L 3.859375 -2.3125 L 8.046875 -2.3125 L 8.046875 0 L 1.703125 0 L 1.703125 -16.328125 Z M 3.859375 -16.328125 "/>
</g>
<g id="glyph-0-9">
<path d="M 12.234375 -15.453125 L 12.234375 -12.53125 C 10.992188 -13.71875 9.707031 -14.3125 8.375 -14.3125 C 6.914062 -14.3125 5.6875 -13.710938 4.6875 -12.515625 C 3.675781 -11.316406 3.171875 -9.847656 3.171875 -8.109375 C 3.171875 -6.398438 3.671875 -4.957031 4.671875 -3.78125 C 5.679688 -2.601562 6.921875 -2.015625 8.390625 -2.015625 C 9.148438 -2.015625 9.796875 -2.15625 10.328125 -2.4375 C 10.617188 -2.570312 10.921875 -2.757812 11.234375 -3 C 11.554688 -3.238281 11.890625 -3.53125 12.234375 -3.875 L 12.234375 -0.90625 C 11.003906 -0.101562 9.710938 0.296875 8.359375 0.296875 C 6.328125 0.296875 4.585938 -0.515625 3.140625 -2.140625 C 1.710938 -3.785156 1 -5.769531 1 -8.09375 C 1 -10.164062 1.597656 -12.019531 2.796875 -13.65625 C 4.273438 -15.644531 6.1875 -16.640625 8.53125 -16.640625 C 9.8125 -16.640625 11.046875 -16.242188 12.234375 -15.453125 Z M 12.234375 -15.453125 "/>
</g>
<g id="glyph-0-10">
<path d="M 1 -8.234375 C 1 -10.535156 1.734375 -12.507812 3.203125 -14.15625 C 4.671875 -15.8125 6.429688 -16.640625 8.484375 -16.640625 C 10.515625 -16.640625 12.253906 -15.804688 13.703125 -14.140625 C 15.160156 -12.472656 15.890625 -10.472656 15.890625 -8.140625 C 15.890625 -5.796875 15.160156 -3.804688 13.703125 -2.171875 C 12.234375 -0.523438 10.457031 0.296875 8.375 0.296875 C 6.53125 0.296875 4.878906 -0.429688 3.421875 -1.890625 C 1.804688 -3.503906 1 -5.617188 1 -8.234375 Z M 3.171875 -8.203125 C 3.171875 -6.398438 3.695312 -4.914062 4.75 -3.75 C 5.800781 -2.59375 7.019531 -2.015625 8.40625 -2.015625 C 9.894531 -2.015625 11.15625 -2.601562 12.1875 -3.78125 C 13.21875 -4.976562 13.734375 -6.4375 13.734375 -8.15625 C 13.734375 -9.90625 13.222656 -11.367188 12.203125 -12.546875 C 11.191406 -13.722656 9.941406 -14.3125 8.453125 -14.3125 C 6.972656 -14.3125 5.722656 -13.722656 4.703125 -12.546875 C 3.679688 -11.367188 3.171875 -9.921875 3.171875 -8.203125 Z M 3.171875 -8.203125 "/>
</g>
<g id="glyph-0-11">
<path d="M 5.640625 -14.015625 L 5.640625 0 L 3.484375 0 L 3.484375 -14.015625 L 0.21875 -14.015625 L 0.21875 -16.328125 L 8.90625 -16.328125 L 8.90625 -14.015625 Z M 5.640625 -14.015625 "/>
</g>
<g id="glyph-0-12">
<path d="M 9.765625 -13.890625 L 8.015625 -12.703125 C 7.691406 -13.359375 7.382812 -13.785156 7.09375 -13.984375 C 6.78125 -14.203125 6.382812 -14.3125 5.90625 -14.3125 C 5.300781 -14.3125 4.800781 -14.117188 4.40625 -13.734375 C 4.019531 -13.359375 3.828125 -12.878906 3.828125 -12.296875 C 3.828125 -11.503906 4.34375 -10.863281 5.375 -10.375 L 6.796875 -9.703125 C 7.953125 -9.171875 8.796875 -8.519531 9.328125 -7.75 C 9.867188 -6.976562 10.140625 -6.03125 10.140625 -4.90625 C 10.140625 -3.40625 9.703125 -2.164062 8.828125 -1.1875 C 7.941406 -0.195312 6.847656 0.296875 5.546875 0.296875 C 4.304688 0.296875 3.285156 -0.125 2.484375 -0.96875 C 1.691406 -1.800781 1.195312 -2.976562 1 -4.5 L 3.171875 -5.046875 C 3.273438 -4.085938 3.445312 -3.425781 3.6875 -3.0625 C 4.132812 -2.363281 4.78125 -2.015625 5.625 -2.015625 C 6.300781 -2.015625 6.859375 -2.269531 7.296875 -2.78125 C 7.742188 -3.289062 7.96875 -3.941406 7.96875 -4.734375 C 7.96875 -5.054688 7.925781 -5.347656 7.84375 -5.609375 C 7.769531 -5.867188 7.648438 -6.109375 7.484375 -6.328125 C 7.328125 -6.554688 7.117188 -6.765625 6.859375 -6.953125 C 6.597656 -7.148438 6.289062 -7.335938 5.9375 -7.515625 L 4.5625 -8.171875 C 2.613281 -9.117188 1.640625 -10.5 1.640625 -12.3125 C 1.640625 -13.539062 2.046875 -14.566406 2.859375 -15.390625 C 3.679688 -16.222656 4.703125 -16.640625 5.921875 -16.640625 C 7.554688 -16.640625 8.835938 -15.722656 9.765625 -13.890625 Z M 9.765625 -13.890625 "/>
</g>
</g>
</defs>
<g fill="#1E3A8A" fill-opacity="1">
<use xlink:href="#glyph-0-0" x="245.5059" y="235.5879"/>
<use xlink:href="#glyph-0-1" x="263.667358" y="235.5879"/>
<use xlink:href="#glyph-0-2" x="274.345011" y="235.5879"/>
<use xlink:href="#glyph-0-3" x="286.156573" y="235.5879"/>
<use xlink:href="#glyph-0-4" x="300.160362" y="235.5879"/>
<use xlink:href="#glyph-0-5" x="305.999998" y="235.5879"/>
<use xlink:href="#glyph-0-1" x="321.912535" y="235.5879"/>
<use xlink:href="#glyph-0-6" x="332.590188" y="235.5879"/>
<use xlink:href="#glyph-0-1" x="348.540522" y="235.5879"/>
<use xlink:href="#glyph-0-7" x="359.218174" y="235.5879"/>
<use xlink:href="#glyph-0-3" x="370.595071" y="235.5879"/>
<use xlink:href="#glyph-0-8" x="384.59886" y="235.5879"/>
</g>
<g fill="#1E3A8A" fill-opacity="1">
<use xlink:href="#glyph-0-9" x="245.5059" y="261.58386"/>
</g>
<g fill="#1E3A8A" fill-opacity="1">
<use xlink:href="#glyph-0-10" x="258.655476" y="261.58386"/>
</g>
<g fill="#1E3A8A" fill-opacity="1">
<use xlink:href="#glyph-0-6" x="275.541286" y="261.58386"/>
<use xlink:href="#glyph-0-11" x="291.49162" y="261.58386"/>
<use xlink:href="#glyph-0-7" x="300.600697" y="261.58386"/>
<use xlink:href="#glyph-0-3" x="311.977594" y="261.58386"/>
</g>
<g fill="#1E3A8A" fill-opacity="1">
<use xlink:href="#glyph-0-9" x="325.310486" y="261.58386"/>
<use xlink:href="#glyph-0-11" x="338.558334" y="261.58386"/>
</g>
<g fill="#1E3A8A" fill-opacity="1">
<use xlink:href="#glyph-0-10" x="347.223297" y="261.58386"/>
<use xlink:href="#glyph-0-7" x="364.118556" y="261.58386"/>
<use xlink:href="#glyph-0-12" x="375.495453" y="261.58386"/>
</g>
<path fill-rule="nonzero" fill="#C41E1E" fill-opacity="1" d="M 230.339844 414.785156 C 231.695312 413.105469 232.644531 411.785156 233.742188 410.597656 C 236.597656 407.515625 239.523438 404.492188 242.410156 401.4375 C 245.769531 397.886719 249.128906 394.339844 252.460938 390.765625 C 255.101562 387.9375 257.683594 385.054688 260.320312 382.21875 C 263.824219 378.445312 267.378906 374.722656 270.855469 370.933594 C 273.101562 368.484375 275.203125 365.90625 277.457031 363.472656 C 279.894531 360.84375 282.480469 358.355469 284.921875 355.730469 C 290.363281 349.882812 295.742188 343.976562 301.171875 338.125 C 304.339844 334.714844 307.589844 331.386719 310.75 327.976562 C 312.875 325.679688 314.921875 323.304688 316.976562 320.941406 C 317.707031 320.105469 318.414062 320.007812 319.171875 320.832031 C 321.996094 323.902344 324.8125 326.980469 327.621094 330.066406 C 331.101562 333.902344 334.53125 337.785156 338.054688 341.578125 C 341.546875 345.332031 345.15625 348.972656 348.671875 352.703125 C 351.425781 355.625 354.101562 358.617188 356.84375 361.554688 C 360.464844 365.433594 364.15625 369.253906 367.742188 373.167969 C 371.367188 377.125 374.855469 381.207031 378.492188 385.152344 C 382.023438 388.984375 385.699219 392.683594 389.246094 396.5 C 392.683594 400.203125 396.023438 403.996094 399.441406 407.714844 C 401.121094 409.542969 402.890625 411.28125 404.589844 413.089844 C 404.949219 413.46875 405.179688 413.96875 405.710938 414.777344 C 400.960938 414.777344 396.660156 414.789062 392.359375 414.75 C 392.066406 414.746094 391.730469 414.410156 391.496094 414.15625 C 386.203125 408.433594 380.949219 402.671875 375.632812 396.972656 C 372.082031 393.164062 368.40625 389.472656 364.855469 385.660156 C 362.691406 383.335938 360.714844 380.832031 358.554688 378.503906 C 356.203125 375.964844 353.691406 373.582031 351.328125 371.050781 C 347.492188 366.9375 343.734375 362.746094 339.914062 358.617188 C 336.351562 354.761719 332.746094 350.945312 329.167969 347.105469 C 325.832031 343.53125 322.472656 339.976562 319.207031 336.339844 C 318.402344 335.441406 317.800781 335.390625 317.0625 336.207031 C 313.039062 340.6875 309.074219 345.230469 304.996094 349.664062 C 301.515625 353.449219 297.882812 357.085938 294.382812 360.847656 C 290.925781 364.558594 287.601562 368.386719 284.128906 372.078125 C 280.527344 375.910156 276.789062 379.613281 273.167969 383.425781 C 270.617188 386.113281 268.167969 388.894531 265.667969 391.628906 C 263.203125 394.324219 260.75 397.027344 258.253906 399.695312 C 253.765625 404.488281 249.253906 409.257812 244.742188 414.027344 C 244.46875 414.320312 244.117188 414.75 243.800781 414.753906 C 239.5 414.800781 235.203125 414.785156 230.339844 414.785156 "/>
<path fill-rule="nonzero" fill="#1E3A8A" fill-opacity="1" d="M 334.871094 363.765625 C 335.648438 364.5 336.121094 364.9375 336.582031 365.386719 C 340.945312 369.65625 345.566406 373.699219 349.59375 378.273438 C 353.429688 382.628906 356.980469 387.253906 359.914062 392.378906 C 363.238281 398.199219 365.167969 404.277344 364.878906 410.921875 C 364.726562 414.375 364.210938 417.914062 362.285156 420.953125 C 360.378906 423.957031 358.585938 427.109375 356.242188 429.746094 C 354.289062 431.941406 351.601562 433.472656 349.25 435.316406 C 345.96875 437.894531 342.710938 440.496094 339.421875 443.0625 C 337.074219 444.894531 334.660156 446.644531 332.339844 448.507812 C 330.875 449.6875 329.515625 451 328.113281 452.265625 C 325.066406 455.023438 322.445312 458.132812 320.503906 461.78125 C 319.882812 462.945312 319.375 464.167969 318.605469 465.394531 C 316.796875 456.011719 316.433594 446.601562 317.585938 437.011719 C 318.71875 427.597656 321.5 418.921875 327.09375 410.707031 C 326.140625 410.707031 325.398438 410.496094 324.882812 410.746094 C 323.101562 411.613281 321.375 412.597656 319.675781 413.617188 C 318.148438 414.535156 316.707031 415.585938 315.1875 416.519531 C 314.824219 416.742188 314.308594 416.71875 313.859375 416.8125 C 313.765625 416.660156 313.667969 416.507812 313.570312 416.355469 C 314.539062 415.300781 315.425781 414.160156 316.492188 413.21875 C 318.167969 411.746094 319.953125 410.402344 321.703125 409.019531 C 321.890625 408.871094 322.152344 408.816406 322.375 408.710938 C 324.441406 407.71875 326.507812 406.71875 328.578125 405.734375 C 328.746094 405.652344 328.949219 405.628906 329.140625 405.613281 C 332.984375 405.292969 336.835938 404.070312 340.660156 405.617188 C 341.304688 405.878906 341.808594 406.484375 342.378906 406.933594 C 342.722656 407.203125 343.066406 407.476562 343.410156 407.75 C 343.617188 407.3125 343.964844 406.890625 344.015625 406.4375 C 344.378906 403.289062 341.320312 399.773438 338.148438 399.625 C 337.761719 399.609375 337.371094 399.558594 336.988281 399.59375 C 334.921875 399.785156 333.816406 399.269531 333.929688 396.761719 C 334.023438 394.527344 331.773438 392.574219 329.460938 392.589844 C 327.058594 392.609375 324.582031 392.628906 322.265625 393.1875 C 319.378906 393.886719 317.667969 396.492188 316.148438 398.742188 C 313.53125 402.621094 311.453125 406.863281 309.199219 410.980469 C 308.078125 413.03125 307.234375 415.253906 305.949219 417.1875 C 304.796875 418.921875 303.285156 420.421875 300.992188 420.78125 C 299.726562 420.976562 298.480469 421.808594 297.273438 421.722656 C 295.878906 421.625 294.53125 420.832031 293.320312 420.398438 C 295.148438 419.789062 297.222656 419.378906 299.015625 418.433594 C 301.933594 416.894531 303.675781 414.113281 305.273438 411.324219 C 307.917969 406.703125 310.398438 401.988281 313.082031 397.390625 C 314.6875 394.636719 316.941406 392.535156 319.535156 390.554688 C 323.007812 387.90625 326.734375 387.992188 330.441406 388.582031 C 332.09375 388.84375 333.59375 390.675781 334.933594 392.027344 C 335.660156 392.765625 335.832031 394.035156 336.40625 394.96875 C 336.777344 395.574219 337.394531 396.390625 337.96875 396.449219 C 340.449219 396.699219 342.359375 397.910156 343.992188 399.65625 C 344.570312 400.269531 345.1875 400.984375 345.410156 401.765625 C 346.21875 404.550781 345.929688 407.386719 345.386719 410.1875 C 345.214844 411.070312 344.789062 411.902344 344.542969 412.589844 C 343.296875 411.425781 342.171875 409.753906 340.621094 409.097656 C 339.082031 408.445312 336.867188 408.226562 335.386719 408.855469 C 332.488281 410.089844 329.976562 412.152344 328.261719 414.949219 C 325.917969 418.78125 324.160156 422.777344 324.59375 427.457031 C 324.824219 430.003906 327.351562 432.597656 329.644531 432 C 331.925781 431.40625 334.070312 430.257812 336.238281 429.273438 C 337.734375 428.589844 339.269531 427.917969 340.621094 426.992188 C 345.449219 423.6875 349.660156 419.859375 352.011719 414.214844 C 353.28125 411.164062 354.261719 408.058594 354.019531 404.859375 C 353.785156 401.75 353.050781 398.589844 351.988281 395.648438 C 350.351562 391.117188 348.441406 386.65625 346.285156 382.34375 C 344.652344 379.082031 342.523438 376.058594 340.492188 373.007812 C 338.671875 370.269531 336.683594 367.640625 334.785156 364.949219 C 334.703125 364.832031 334.804688 364.585938 334.871094 363.765625 "/>
<path fill-rule="nonzero" fill="#1E3A8A" fill-opacity="1" d="M 299.335938 450.109375 C 297.199219 447.875 295.421875 445.980469 293.601562 444.128906 C 292.070312 442.570312 290.503906 441.050781 288.933594 439.535156 C 287.445312 438.097656 285.925781 436.695312 284.433594 435.257812 C 281.667969 432.59375 279.007812 429.953125 277.085938 426.449219 C 275.347656 423.277344 274.179688 419.957031 273.75 416.5625 C 273.28125 412.851562 273.726562 408.988281 274.09375 405.222656 C 274.328125 402.863281 275.074219 400.539062 275.726562 398.238281 C 277.144531 393.257812 279.699219 388.835938 282.269531 384.378906 C 285.035156 379.585938 288.972656 375.808594 292.328125 371.535156 C 292.722656 371.03125 293.472656 370.804688 294.480469 370.195312 C 294.253906 371.0625 294.234375 371.621094 293.980469 372.03125 C 292.675781 374.132812 291.121094 376.097656 290.015625 378.296875 C 288.679688 380.953125 287.53125 383.738281 286.617188 386.570312 C 285.203125 390.9375 284.65625 395.484375 283.972656 400.03125 C 283.371094 404.058594 284.296875 407.820312 284.488281 411.664062 C 284.640625 414.808594 286.335938 417.855469 287.148438 421 C 288.242188 425.238281 290.625 428.800781 292.882812 432.414062 C 294.628906 435.203125 296.828125 437.703125 298.667969 440.441406 C 300.734375 443.523438 302.621094 446.726562 304.585938 449.878906 C 305.886719 451.976562 307.308594 454.007812 308.453125 456.1875 C 310.054688 459.246094 311.496094 462.394531 312.917969 465.546875 C 313.589844 467.039062 314.054688 468.625 314.65625 470.289062 C 311.855469 467.171875 309.433594 464.011719 306.53125 461.386719 C 303.988281 459.085938 300.96875 457.277344 298.039062 455.457031 C 295.558594 453.914062 292.917969 452.632812 290.316406 451.300781 C 289.710938 450.992188 288.90625 451.074219 288.304688 450.757812 C 284.820312 448.949219 281.160156 447.382812 277.953125 445.160156 C 272.839844 441.605469 268.453125 437.269531 265.664062 431.476562 C 263.386719 426.746094 262.25 421.835938 262.582031 416.601562 C 262.675781 415.140625 262.183594 414.65625 260.742188 414.695312 C 257.855469 414.78125 254.960938 414.722656 251.585938 414.722656 C 256.84375 409.015625 261.777344 403.664062 266.707031 398.3125 C 266.875 398.417969 267.042969 398.519531 267.210938 398.621094 C 266.886719 400.132812 266.527344 401.636719 266.25 403.15625 C 265.617188 406.632812 264.707031 409.976562 265.363281 413.703125 C 265.917969 416.863281 266.480469 419.917969 267.8125 422.832031 C 269.375 426.261719 271.4375 429.347656 274.121094 431.988281 C 278.046875 435.847656 282.4375 439.125 286.945312 442.261719 C 290.621094 444.824219 294.21875 447.496094 297.875 450.089844 C 298.066406 450.230469 298.441406 450.109375 299.335938 450.109375 "/>
<path fill-rule="nonzero" fill="#1E3A8A" fill-opacity="1" d="M 368.714844 397.46875 C 373.917969 403.097656 379.046875 408.644531 384.4375 414.480469 C 383.652344 414.601562 383.191406 414.726562 382.734375 414.730469 C 380.214844 414.746094 377.691406 414.753906 375.167969 414.714844 C 374.027344 414.699219 373.527344 415.148438 373.582031 416.335938 C 373.640625 417.632812 373.546875 418.933594 373.550781 420.234375 C 373.558594 424.511719 371.953125 428.292969 370.140625 432.054688 C 368.175781 436.125 365.074219 439.195312 361.742188 442.042969 C 359.957031 443.574219 357.894531 444.785156 355.929688 446.097656 C 353.878906 447.472656 351.820312 448.835938 349.722656 450.125 C 349.042969 450.542969 348.191406 450.667969 347.464844 451.015625 C 343.804688 452.769531 339.921875 454.1875 336.570312 456.414062 C 332.355469 459.214844 328.347656 462.417969 325.0625 466.378906 C 324.488281 467.066406 324.050781 467.867188 323.195312 469.152344 C 323.269531 468 323.101562 467.25 323.386719 466.773438 C 325.421875 463.367188 327.101562 459.585938 329.769531 456.761719 C 332.660156 453.703125 335.597656 450.542969 339.410156 448.351562 C 343.011719 446.285156 346.261719 443.609375 349.6875 441.230469 C 350.734375 440.503906 351.808594 439.789062 352.933594 439.195312 C 356.335938 437.40625 359.117188 434.835938 361.832031 432.175781 C 364.976562 429.09375 367.527344 425.667969 369.097656 421.425781 C 370.582031 417.410156 371.589844 413.339844 371.128906 409.140625 C 370.710938 405.332031 369.597656 401.597656 368.714844 397.46875 "/>
<path fill-rule="nonzero" fill="#1E3A8A" fill-opacity="1" d="M 326.328125 399.105469 C 328.457031 397.515625 329.277344 399.78125 330.8125 399.953125 C 330.105469 400.394531 329.488281 400.78125 328.722656 401.257812 C 328.035156 400.640625 327.230469 399.917969 326.328125 399.105469 "/>
<g fill="#1E3A8A" fill-opacity="1">
<use xlink:href="#glyph-0-0" x="245.5059" y="488.749"/>
<use xlink:href="#glyph-0-1" x="263.667358" y="488.749"/>
<use xlink:href="#glyph-0-2" x="274.345011" y="488.749"/>
<use xlink:href="#glyph-0-3" x="286.156573" y="488.749"/>
<use xlink:href="#glyph-0-4" x="300.160362" y="488.749"/>
<use xlink:href="#glyph-0-5" x="305.999998" y="488.749"/>
<use xlink:href="#glyph-0-1" x="321.912535" y="488.749"/>
<use xlink:href="#glyph-0-6" x="332.590188" y="488.749"/>
<use xlink:href="#glyph-0-1" x="348.540522" y="488.749"/>
<use xlink:href="#glyph-0-7" x="359.218174" y="488.749"/>
<use xlink:href="#glyph-0-3" x="370.595071" y="488.749"/>
<use xlink:href="#glyph-0-8" x="384.59886" y="488.749"/>
</g>
<g fill="#1E3A8A" fill-opacity="1">
<use xlink:href="#glyph-0-9" x="245.5059" y="514.74496"/>
</g>
<g fill="#1E3A8A" fill-opacity="1">
<use xlink:href="#glyph-0-10" x="258.655476" y="514.74496"/>
</g>
<g fill="#1E3A8A" fill-opacity="1">
<use xlink:href="#glyph-0-6" x="275.541286" y="514.74496"/>
<use xlink:href="#glyph-0-11" x="291.49162" y="514.74496"/>
<use xlink:href="#glyph-0-7" x="300.600697" y="514.74496"/>
<use xlink:href="#glyph-0-3" x="311.977594" y="514.74496"/>
</g>
<g fill="#1E3A8A" fill-opacity="1">
<use xlink:href="#glyph-0-9" x="325.310486" y="514.74496"/>
<use xlink:href="#glyph-0-11" x="338.558334" y="514.74496"/>
</g>
<g fill="#1E3A8A" fill-opacity="1">
<use xlink:href="#glyph-0-10" x="347.223297" y="514.74496"/>
<use xlink:href="#glyph-0-7" x="364.118556" y="514.74496"/>
<use xlink:href="#glyph-0-12" x="375.495453" y="514.74496"/>
</g>
</svg>